<?xml version="1.0" standalone="no"?>
<!DOCTYPE svg PUBLIC "-//W3C//DTD SVG 20010904//EN"
 "http://www.w3.org/TR/2001/REC-SVG-20010904/DTD/svg10.dtd">
<svg version="1.0" xmlns="http://www.w3.org/2000/svg"
 width="300.000000pt" height="236.000000pt" viewBox="0 0 300.000000 236.000000"
 preserveAspectRatio="xMidYMid meet">
<metadata>
Created by potrace 1.10, written by Peter Selinger 2001-2011
</metadata>
<g transform="translate(0.000000,236.000000) scale(0.100000,-0.100000)"
fill="#000000" stroke="none">
<path d="M1400 2184 c-116 -13 -196 -30 -280 -59 -319 -109 -487 -320 -551
-695 -17 -97 -17 -321 0 -380 7 -25 15 -52 16 -60 10 -48 63 -187 101 -265
117 -244 232 -371 399 -442 118 -50 226 -67 425 -67 109 0 137 4 215 28 220
68 441 200 546 327 197 236 265 575 173 854 -57 174 -175 376 -287 492 -166
172 -361 259 -602 267 -66 2 -136 2 -155 0z m308 -50 c282 -58 506 -255 662
-578 81 -169 95 -228 94 -391 -1 -168 -21 -254 -88 -390 -85 -170 -219 -299
-416 -399 -181 -92 -304 -126 -465 -126 -413 0 -607 119 -785 485 -101 206
-148 393 -136 545 31 396 166 636 431 764 156 76 285 103 493 105 86 1 160 -5
210 -15z"/>
<path d="M1372 1674 c-59 -29 -88 -65 -108 -131 -27 -89 -9 -185 47 -263 27
-37 31 -51 30 -99 l-1 -56 115 -41 c123 -44 125 -43 125 16 0 38 32 60 90 60
25 0 50 4 55 8 17 11 38 88 32 112 -4 14 1 25 14 33 25 16 24 30 -5 80 -18 30
-25 56 -25 93 1 90 -63 176 -150 203 -69 20 -161 14 -219 -15z m249 -36 c22
-12 49 -36 59 -53 55 -90 25 -182 -77 -232 -49 -23 -71 -28 -138 -28 -91 0
-122 14 -155 68 -38 61 -17 170 43 225 61 56 187 66 268 20z m115 -273 c3 -14
3 -33 -2 -42 -4 -10 -9 -33 -11 -52 -6 -55 -18 -68 -70 -75 -54 -7 -69 -17
-101 -63 l-22 -32 -54 19 c-85 29 -96 37 -96 71 0 16 -7 46 -15 66 -8 20 -14
38 -12 39 2 2 21 -1 43 -7 83 -24 223 12 280 72 34 36 52 37 60 4z"/>
<path d="M1561 1599 c-13 -5 -21 -15 -18 -23 3 -7 1 -18 -5 -24 -6 -6 0 -18
19 -36 30 -28 43 -33 43 -16 0 6 7 10 17 8 11 -2 19 7 25 31 8 28 6 37 -11 52
-22 21 -34 22 -70 8z m57 -45 c4 -26 -26 -40 -45 -21 -8 7 -11 21 -7 31 9 24
48 17 52 -10z"/>
<path d="M1397 1592 c-10 -2 -22 -15 -27 -28 -5 -13 -16 -24 -24 -24 -21 0
-30 -48 -11 -66 9 -9 13 -24 10 -34 -6 -20 27 -46 45 -35 5 3 19 1 31 -5 27
-15 73 -4 66 15 -6 15 16 39 26 29 12 -13 19 47 7 61 -7 9 -13 25 -14 36 -1
22 -46 61 -46 41 0 -11 -30 -5 -40 8 -3 3 -13 4 -23 2z m69 -77 c15 -23 15
-27 0 -50 -27 -42 -86 -26 -86 23 0 55 56 72 86 27z"/>
<path d="M1413 1513 c-17 -6 -17 -28 0 -41 17 -14 40 1 35 23 -3 20 -16 26
-35 18z"/>
<path d="M1559 1463 c-26 -6 -31 -55 -8 -76 28 -26 65 -13 73 25 8 43 -18 64
-65 51z m44 -49 c-8 -21 -43 -18 -43 5 0 11 6 21 13 24 17 6 37 -12 30 -29z"/>
<path d="M1115 815 l0 -95 32 0 c51 0 63 9 63 45 0 19 -4 36 -9 39 -4 3 -6 17
-4 31 3 13 2 36 -1 50 -5 21 -12 25 -44 25 l-37 0 0 -95z"/>
<path d="M1234 815 c1 -83 3 -95 18 -95 14 0 16 6 11 32 -8 41 11 30 26 -15 9
-26 17 -32 41 -34 26 -2 30 1 30 22 0 18 5 25 20 25 11 0 20 -7 20 -15 0 -8 7
-15 15 -15 18 0 18 -4 0 45 -8 22 -14 61 -15 86 0 33 -5 49 -16 53 -28 11 -34
6 -34 -27 0 -45 -21 -147 -30 -147 -4 0 -13 14 -20 30 -11 26 -10 33 4 49 36
40 10 101 -43 101 l-28 0 1 -95z m61 35 c0 -16 -6 -26 -17 -28 -14 -3 -18 3
-18 28 0 25 4 31 18 28 11 -2 17 -12 17 -28z m94 -62 c1 -10 -6 -18 -15 -18
-11 0 -14 5 -10 16 3 9 6 25 7 37 0 21 1 21 9 2 5 -11 9 -28 9 -37z"/>
<path d="M1444 894 c3 -9 6 -51 6 -95 0 -73 2 -79 21 -79 16 0 19 4 13 22 -3
12 -6 55 -6 95 1 67 0 73 -19 73 -15 0 -19 -5 -15 -16z"/>
<path d="M1505 885 c3 -14 7 -36 10 -49 3 -13 1 -45 -4 -70 -5 -25 -5 -46 -1
-46 5 0 15 -3 23 -6 12 -4 14 4 11 43 l-4 48 17 -38 c25 -58 38 -41 41 56 2
76 1 87 -14 87 -15 0 -16 -8 -11 -61 4 -37 3 -58 -3 -54 -13 8 -33 84 -26 101
4 10 -2 14 -20 14 -21 0 -24 -4 -19 -25z"/>
<path d="M1670 887 c0 -13 6 -17 23 -15 21 3 22 0 21 -74 -1 -71 0 -78 18 -78
17 0 19 7 17 58 -3 94 -2 101 21 95 15 -4 20 0 20 14 0 16 -8 18 -60 18 -51 0
-60 -2 -60 -18z"/>
<path d="M1815 813 l0 -93 30 -4 c97 -15 135 -15 135 -1 0 11 -12 15 -42 15
-67 0 -88 9 -88 36 0 15 6 24 15 24 8 0 15 7 15 16 0 10 -6 14 -15 10 -12 -4
-15 3 -15 30 0 32 2 34 25 28 20 -5 25 -2 25 12 0 16 -8 19 -42 19 l-43 0 0
-92z"/>
<path d="M1922 903 c-6 -2 -10 -8 -7 -13 4 -7 -4 -67 -17 -119 -2 -8 3 -16 10
-18 6 -3 12 2 12 11 0 9 7 16 15 16 8 0 15 -9 15 -20 0 -12 7 -20 16 -20 12 0
15 6 10 23 -3 12 -11 50 -17 85 -6 34 -14 62 -18 61 -3 0 -12 -3 -19 -6z"/>
<path d="M2002 894 c-19 -13 -20 -18 -10 -37 6 -12 24 -34 41 -49 28 -27 32
-48 9 -56 -7 -2 -12 6 -12 17 0 14 -6 21 -20 21 -14 0 -20 -7 -20 -24 0 -33
23 -49 60 -41 26 6 30 11 30 42 0 26 -7 41 -30 61 -32 29 -39 52 -15 52 8 0
15 -7 15 -15 0 -8 9 -15 20 -15 24 0 26 22 4 44 -20 20 -43 20 -72 0z"/>
<path d="M2117 850 c3 -30 1 -72 -5 -92 -9 -34 -8 -38 8 -38 9 0 32 -3 49 -6
27 -6 31 -4 31 15 0 18 -4 20 -30 15 -27 -6 -30 -4 -30 20 0 16 6 26 14 26 8
0 17 7 20 15 4 11 0 15 -11 13 -12 -2 -17 5 -17 27 -1 27 2 30 27 27 21 -3 27
1 27 15 0 15 -8 18 -44 18 l-44 0 5 -55z"/>
<path d="M870 861 c0 -21 5 -31 16 -31 11 0 14 8 12 27 -4 39 -28 42 -28 4z"/>
<path d="M872 773 c4 -36 33 -39 33 -3 0 16 -6 26 -18 28 -15 3 -18 -2 -15
-25z"/>
</g>
</svg>
